<mxfile host="app.diagrams.net" modified="2023-11-12T22:07:19.438Z" agent="Mozilla/5.0 (Windows NT 10.0; Win64; x64) AppleWebKit/537.36 (KHTML, like Gecko) Chrome/119.0.0.0 Safari/537.36" etag="ZIwhc15ZrA77qLL3cUWU" version="22.1.0" type="google">
  <diagram id="C5RBs43oDa-KdzZeNtuy" name="Page-1">
    <mxGraphModel grid="1" page="1" gridSize="10" guides="1" tooltips="1" connect="1" arrows="1" fold="1" pageScale="1" pageWidth="827" pageHeight="1169" math="0" shadow="0">
      <root>
        <mxCell id="WIyWlLk6GJQsqaUBKTNV-0" />
        <mxCell id="WIyWlLk6GJQsqaUBKTNV-1" parent="WIyWlLk6GJQsqaUBKTNV-0" />
        <mxCell id="WIyWlLk6GJQsqaUBKTNV-2" value="" style="rounded=0;html=1;jettySize=auto;orthogonalLoop=1;fontSize=11;endArrow=block;endFill=0;endSize=8;strokeWidth=1;shadow=0;labelBackgroundColor=none;edgeStyle=orthogonalEdgeStyle;" edge="1" parent="WIyWlLk6GJQsqaUBKTNV-1" source="WIyWlLk6GJQsqaUBKTNV-3" target="WIyWlLk6GJQsqaUBKTNV-6">
          <mxGeometry relative="1" as="geometry" />
        </mxCell>
        <mxCell id="WIyWlLk6GJQsqaUBKTNV-3" value="&lt;p class=&quot;MsoNormal&quot;&gt;Click on “Nearby Carparks” button&lt;/p&gt;" style="rounded=1;whiteSpace=wrap;html=1;fontSize=12;glass=0;strokeWidth=1;shadow=0;" vertex="1" parent="WIyWlLk6GJQsqaUBKTNV-1">
          <mxGeometry x="54.28" y="30" width="190" height="63.33" as="geometry" />
        </mxCell>
        <mxCell id="PfzSi_uFUEJV8Fl3QWMh-4" value="" style="edgeStyle=none;curved=1;rounded=0;orthogonalLoop=1;jettySize=auto;html=1;fontSize=12;startSize=8;endSize=8;entryX=0.502;entryY=0.02;entryDx=0;entryDy=0;entryPerimeter=0;" edge="1" parent="WIyWlLk6GJQsqaUBKTNV-1" source="WIyWlLk6GJQsqaUBKTNV-6" target="aiVJMmzEyk2H416Wkd0U-16">
          <mxGeometry relative="1" as="geometry">
            <mxPoint x="149.28113311879613" y="336.67090649503683" as="targetPoint" />
          </mxGeometry>
        </mxCell>
        <mxCell id="aiVJMmzEyk2H416Wkd0U-14" style="edgeStyle=orthogonalEdgeStyle;rounded=0;orthogonalLoop=1;jettySize=auto;html=1;exitX=1;exitY=0.5;exitDx=0;exitDy=0;entryX=0;entryY=0.5;entryDx=0;entryDy=0;" edge="1" parent="WIyWlLk6GJQsqaUBKTNV-1" source="WIyWlLk6GJQsqaUBKTNV-6" target="WIyWlLk6GJQsqaUBKTNV-7">
          <mxGeometry relative="1" as="geometry" />
        </mxCell>
        <mxCell id="aiVJMmzEyk2H416Wkd0U-18" value="False" style="edgeLabel;html=1;align=center;verticalAlign=middle;resizable=0;points=[];" connectable="0" vertex="1" parent="aiVJMmzEyk2H416Wkd0U-14">
          <mxGeometry x="-0.0538" relative="1" as="geometry">
            <mxPoint x="-6" as="offset" />
          </mxGeometry>
        </mxCell>
        <mxCell id="WIyWlLk6GJQsqaUBKTNV-6" value="&lt;p align=&quot;center&quot; class=&quot;MsoNormal&quot;&gt;If there are nearby carparks&lt;/p&gt;" style="rhombus;whiteSpace=wrap;html=1;shadow=0;fontFamily=Helvetica;fontSize=12;align=center;strokeWidth=1;spacing=6;spacingTop=-4;" vertex="1" parent="WIyWlLk6GJQsqaUBKTNV-1">
          <mxGeometry x="59.28" y="130" width="180" height="126.67" as="geometry" />
        </mxCell>
        <mxCell id="WIyWlLk6GJQsqaUBKTNV-7" value="&lt;p align=&quot;center&quot; class=&quot;MsoNormal&quot;&gt;Display an empty list&lt;/p&gt;" style="rounded=1;whiteSpace=wrap;html=1;fontSize=12;glass=0;strokeWidth=1;shadow=0;" vertex="1" parent="WIyWlLk6GJQsqaUBKTNV-1">
          <mxGeometry x="318" y="161.63" width="190.23" height="63.41" as="geometry" />
        </mxCell>
        <mxCell id="PfzSi_uFUEJV8Fl3QWMh-0" value="1" style="text;html=1;strokeColor=none;fillColor=none;align=center;verticalAlign=middle;whiteSpace=wrap;rounded=0;fontSize=16;" vertex="1" parent="WIyWlLk6GJQsqaUBKTNV-1">
          <mxGeometry x="60.71000000000001" y="36.67" width="10" height="10" as="geometry" />
        </mxCell>
        <mxCell id="PfzSi_uFUEJV8Fl3QWMh-1" value="2" style="text;html=1;strokeColor=none;fillColor=none;align=center;verticalAlign=middle;whiteSpace=wrap;rounded=0;fontSize=16;" vertex="1" parent="WIyWlLk6GJQsqaUBKTNV-1">
          <mxGeometry x="144.28" y="151.63000000000002" width="10" height="10" as="geometry" />
        </mxCell>
        <mxCell id="aiVJMmzEyk2H416Wkd0U-15" value="3" style="text;html=1;strokeColor=none;fillColor=none;align=center;verticalAlign=middle;whiteSpace=wrap;rounded=0;fontSize=16;" vertex="1" parent="WIyWlLk6GJQsqaUBKTNV-1">
          <mxGeometry x="330" y="167.00000000000003" width="10" height="10" as="geometry" />
        </mxCell>
        <mxCell id="aiVJMmzEyk2H416Wkd0U-22" style="edgeStyle=orthogonalEdgeStyle;rounded=0;orthogonalLoop=1;jettySize=auto;html=1;entryX=0;entryY=0.5;entryDx=0;entryDy=0;" edge="1" parent="WIyWlLk6GJQsqaUBKTNV-1" source="aiVJMmzEyk2H416Wkd0U-16" target="aiVJMmzEyk2H416Wkd0U-21">
          <mxGeometry relative="1" as="geometry" />
        </mxCell>
        <mxCell id="aiVJMmzEyk2H416Wkd0U-23" value="True" style="edgeLabel;html=1;align=center;verticalAlign=middle;resizable=0;points=[];" connectable="0" vertex="1" parent="aiVJMmzEyk2H416Wkd0U-22">
          <mxGeometry x="-0.0638" y="-2" relative="1" as="geometry">
            <mxPoint x="1" y="-2" as="offset" />
          </mxGeometry>
        </mxCell>
        <mxCell id="aiVJMmzEyk2H416Wkd0U-117" style="edgeStyle=orthogonalEdgeStyle;rounded=0;orthogonalLoop=1;jettySize=auto;html=1;entryX=0.5;entryY=0;entryDx=0;entryDy=0;" edge="1" parent="WIyWlLk6GJQsqaUBKTNV-1" source="aiVJMmzEyk2H416Wkd0U-16" target="aiVJMmzEyk2H416Wkd0U-74">
          <mxGeometry relative="1" as="geometry" />
        </mxCell>
        <mxCell id="aiVJMmzEyk2H416Wkd0U-122" value="False" style="edgeLabel;html=1;align=center;verticalAlign=middle;resizable=0;points=[];" connectable="0" vertex="1" parent="aiVJMmzEyk2H416Wkd0U-117">
          <mxGeometry x="-0.0276" y="-2" relative="1" as="geometry">
            <mxPoint as="offset" />
          </mxGeometry>
        </mxCell>
        <mxCell id="aiVJMmzEyk2H416Wkd0U-16" value="&lt;p align=&quot;center&quot; class=&quot;MsoNormal&quot;&gt;If sort by vacancy&lt;/p&gt;" style="rhombus;whiteSpace=wrap;html=1;shadow=0;fontFamily=Helvetica;fontSize=12;align=center;strokeWidth=1;spacing=6;spacingTop=-4;" vertex="1" parent="WIyWlLk6GJQsqaUBKTNV-1">
          <mxGeometry x="59.28" y="300" width="180" height="126.67" as="geometry" />
        </mxCell>
        <mxCell id="aiVJMmzEyk2H416Wkd0U-19" value="True" style="edgeLabel;html=1;align=center;verticalAlign=middle;resizable=0;points=[];" connectable="0" vertex="1" parent="WIyWlLk6GJQsqaUBKTNV-1">
          <mxGeometry x="260.0028571428572" y="176.99500000000003" as="geometry">
            <mxPoint x="-114" y="100" as="offset" />
          </mxGeometry>
        </mxCell>
        <mxCell id="aiVJMmzEyk2H416Wkd0U-27" style="edgeStyle=orthogonalEdgeStyle;rounded=0;orthogonalLoop=1;jettySize=auto;html=1;exitX=1;exitY=0.5;exitDx=0;exitDy=0;entryX=0;entryY=0.5;entryDx=0;entryDy=0;" edge="1" parent="WIyWlLk6GJQsqaUBKTNV-1" source="aiVJMmzEyk2H416Wkd0U-21" target="aiVJMmzEyk2H416Wkd0U-24">
          <mxGeometry relative="1" as="geometry" />
        </mxCell>
        <mxCell id="aiVJMmzEyk2H416Wkd0U-29" value="True" style="edgeLabel;html=1;align=center;verticalAlign=middle;resizable=0;points=[];" connectable="0" vertex="1" parent="aiVJMmzEyk2H416Wkd0U-27">
          <mxGeometry x="0.0602" relative="1" as="geometry">
            <mxPoint as="offset" />
          </mxGeometry>
        </mxCell>
        <mxCell id="aiVJMmzEyk2H416Wkd0U-28" style="edgeStyle=orthogonalEdgeStyle;rounded=0;orthogonalLoop=1;jettySize=auto;html=1;exitX=1;exitY=0.5;exitDx=0;exitDy=0;entryX=0;entryY=0.5;entryDx=0;entryDy=0;" edge="1" parent="WIyWlLk6GJQsqaUBKTNV-1" source="aiVJMmzEyk2H416Wkd0U-21" target="aiVJMmzEyk2H416Wkd0U-25">
          <mxGeometry relative="1" as="geometry" />
        </mxCell>
        <mxCell id="aiVJMmzEyk2H416Wkd0U-30" value="False" style="edgeLabel;html=1;align=center;verticalAlign=middle;resizable=0;points=[];" connectable="0" vertex="1" parent="aiVJMmzEyk2H416Wkd0U-28">
          <mxGeometry x="0.0065" y="1" relative="1" as="geometry">
            <mxPoint as="offset" />
          </mxGeometry>
        </mxCell>
        <mxCell id="aiVJMmzEyk2H416Wkd0U-21" value="&lt;p align=&quot;center&quot; class=&quot;MsoNormal&quot;&gt;If in ascending order&lt;/p&gt;" style="rhombus;whiteSpace=wrap;html=1;shadow=0;fontFamily=Helvetica;fontSize=12;align=center;strokeWidth=1;spacing=6;spacingTop=-4;" vertex="1" parent="WIyWlLk6GJQsqaUBKTNV-1">
          <mxGeometry x="290" y="300" width="180" height="126.67" as="geometry" />
        </mxCell>
        <mxCell id="aiVJMmzEyk2H416Wkd0U-24" value="&lt;p align=&quot;center&quot; class=&quot;MsoNormal&quot;&gt;Display nearby carparks within 500m of searched location in a list, sorted by vacancy in ascending order&lt;/p&gt;" style="rounded=1;whiteSpace=wrap;html=1;fontSize=12;glass=0;strokeWidth=1;shadow=0;" vertex="1" parent="WIyWlLk6GJQsqaUBKTNV-1">
          <mxGeometry x="540" y="256.67" width="240" height="93.33" as="geometry" />
        </mxCell>
        <mxCell id="aiVJMmzEyk2H416Wkd0U-25" value="&lt;p align=&quot;center&quot; class=&quot;MsoNormal&quot;&gt;Display nearby carparks within 500m of searched location in a list, sorted by vacancy in descending order&lt;br&gt;&lt;/p&gt;" style="rounded=1;whiteSpace=wrap;html=1;fontSize=12;glass=0;strokeWidth=1;shadow=0;" vertex="1" parent="WIyWlLk6GJQsqaUBKTNV-1">
          <mxGeometry x="540" y="400" width="236.25" height="90" as="geometry" />
        </mxCell>
        <mxCell id="aiVJMmzEyk2H416Wkd0U-31" value="4" style="text;html=1;strokeColor=none;fillColor=none;align=center;verticalAlign=middle;whiteSpace=wrap;rounded=0;fontSize=16;" vertex="1" parent="WIyWlLk6GJQsqaUBKTNV-1">
          <mxGeometry x="144.28" y="320" width="10" height="10" as="geometry" />
        </mxCell>
        <mxCell id="aiVJMmzEyk2H416Wkd0U-32" value="5" style="text;html=1;strokeColor=none;fillColor=none;align=center;verticalAlign=middle;whiteSpace=wrap;rounded=0;fontSize=16;" vertex="1" parent="WIyWlLk6GJQsqaUBKTNV-1">
          <mxGeometry x="370" y="320" width="10" height="10" as="geometry" />
        </mxCell>
        <mxCell id="aiVJMmzEyk2H416Wkd0U-34" value="6" style="text;html=1;strokeColor=none;fillColor=none;align=center;verticalAlign=middle;whiteSpace=wrap;rounded=0;fontSize=16;" vertex="1" parent="WIyWlLk6GJQsqaUBKTNV-1">
          <mxGeometry x="550" y="270" width="10" height="10" as="geometry" />
        </mxCell>
        <mxCell id="aiVJMmzEyk2H416Wkd0U-38" value="7" style="text;html=1;strokeColor=none;fillColor=none;align=center;verticalAlign=middle;whiteSpace=wrap;rounded=0;fontSize=16;" vertex="1" parent="WIyWlLk6GJQsqaUBKTNV-1">
          <mxGeometry x="550" y="410" width="10" height="10" as="geometry" />
        </mxCell>
        <mxCell id="aiVJMmzEyk2H416Wkd0U-72" style="edgeStyle=orthogonalEdgeStyle;rounded=0;orthogonalLoop=1;jettySize=auto;html=1;entryX=0;entryY=0.5;entryDx=0;entryDy=0;" edge="1" parent="WIyWlLk6GJQsqaUBKTNV-1" source="aiVJMmzEyk2H416Wkd0U-74" target="aiVJMmzEyk2H416Wkd0U-79">
          <mxGeometry relative="1" as="geometry" />
        </mxCell>
        <mxCell id="aiVJMmzEyk2H416Wkd0U-73" value="True" style="edgeLabel;html=1;align=center;verticalAlign=middle;resizable=0;points=[];" connectable="0" vertex="1" parent="aiVJMmzEyk2H416Wkd0U-72">
          <mxGeometry x="-0.0638" y="-2" relative="1" as="geometry">
            <mxPoint x="1" y="-2" as="offset" />
          </mxGeometry>
        </mxCell>
        <mxCell id="aiVJMmzEyk2H416Wkd0U-119" style="edgeStyle=orthogonalEdgeStyle;rounded=0;orthogonalLoop=1;jettySize=auto;html=1;" edge="1" parent="WIyWlLk6GJQsqaUBKTNV-1" source="aiVJMmzEyk2H416Wkd0U-74" target="aiVJMmzEyk2H416Wkd0U-89">
          <mxGeometry relative="1" as="geometry" />
        </mxCell>
        <mxCell id="aiVJMmzEyk2H416Wkd0U-123" value="False" style="edgeLabel;html=1;align=center;verticalAlign=middle;resizable=0;points=[];" connectable="0" vertex="1" parent="aiVJMmzEyk2H416Wkd0U-119">
          <mxGeometry x="-0.1262" y="-1" relative="1" as="geometry">
            <mxPoint y="-1" as="offset" />
          </mxGeometry>
        </mxCell>
        <mxCell id="aiVJMmzEyk2H416Wkd0U-74" value="&lt;p align=&quot;center&quot; class=&quot;MsoNormal&quot;&gt;If sort by travel time&lt;/p&gt;" style="rhombus;whiteSpace=wrap;html=1;shadow=0;fontFamily=Helvetica;fontSize=12;align=center;strokeWidth=1;spacing=6;spacingTop=-4;" vertex="1" parent="WIyWlLk6GJQsqaUBKTNV-1">
          <mxGeometry x="59.28" y="553.33" width="180" height="126.67" as="geometry" />
        </mxCell>
        <mxCell id="aiVJMmzEyk2H416Wkd0U-75" style="edgeStyle=orthogonalEdgeStyle;rounded=0;orthogonalLoop=1;jettySize=auto;html=1;exitX=1;exitY=0.5;exitDx=0;exitDy=0;entryX=0;entryY=0.5;entryDx=0;entryDy=0;" edge="1" parent="WIyWlLk6GJQsqaUBKTNV-1" source="aiVJMmzEyk2H416Wkd0U-79" target="aiVJMmzEyk2H416Wkd0U-80">
          <mxGeometry relative="1" as="geometry" />
        </mxCell>
        <mxCell id="aiVJMmzEyk2H416Wkd0U-76" value="True" style="edgeLabel;html=1;align=center;verticalAlign=middle;resizable=0;points=[];" connectable="0" vertex="1" parent="aiVJMmzEyk2H416Wkd0U-75">
          <mxGeometry x="0.0602" relative="1" as="geometry">
            <mxPoint as="offset" />
          </mxGeometry>
        </mxCell>
        <mxCell id="aiVJMmzEyk2H416Wkd0U-77" style="edgeStyle=orthogonalEdgeStyle;rounded=0;orthogonalLoop=1;jettySize=auto;html=1;exitX=1;exitY=0.5;exitDx=0;exitDy=0;entryX=0;entryY=0.5;entryDx=0;entryDy=0;" edge="1" parent="WIyWlLk6GJQsqaUBKTNV-1" source="aiVJMmzEyk2H416Wkd0U-79" target="aiVJMmzEyk2H416Wkd0U-81">
          <mxGeometry relative="1" as="geometry" />
        </mxCell>
        <mxCell id="aiVJMmzEyk2H416Wkd0U-78" value="False" style="edgeLabel;html=1;align=center;verticalAlign=middle;resizable=0;points=[];" connectable="0" vertex="1" parent="aiVJMmzEyk2H416Wkd0U-77">
          <mxGeometry x="0.0065" y="1" relative="1" as="geometry">
            <mxPoint as="offset" />
          </mxGeometry>
        </mxCell>
        <mxCell id="aiVJMmzEyk2H416Wkd0U-79" value="&lt;p align=&quot;center&quot; class=&quot;MsoNormal&quot;&gt;If in ascending order&lt;/p&gt;" style="rhombus;whiteSpace=wrap;html=1;shadow=0;fontFamily=Helvetica;fontSize=12;align=center;strokeWidth=1;spacing=6;spacingTop=-4;" vertex="1" parent="WIyWlLk6GJQsqaUBKTNV-1">
          <mxGeometry x="290" y="553.33" width="180" height="126.67" as="geometry" />
        </mxCell>
        <mxCell id="aiVJMmzEyk2H416Wkd0U-80" value="&lt;p align=&quot;center&quot; class=&quot;MsoNormal&quot;&gt;Display nearby carparks within 500m of searched location in a list, sorted by travel time to carpark from user location in ascending order&lt;/p&gt;" style="rounded=1;whiteSpace=wrap;html=1;fontSize=12;glass=0;strokeWidth=1;shadow=0;" vertex="1" parent="WIyWlLk6GJQsqaUBKTNV-1">
          <mxGeometry x="540" y="510" width="240" height="120" as="geometry" />
        </mxCell>
        <mxCell id="aiVJMmzEyk2H416Wkd0U-81" value="&lt;p align=&quot;center&quot; class=&quot;MsoNormal&quot;&gt;Display nearby carparks within 500m of searched location in a list, sorted by sorted by travel time to carpark from user location&amp;nbsp;in descending order&lt;br&gt;&lt;/p&gt;" style="rounded=1;whiteSpace=wrap;html=1;fontSize=12;glass=0;strokeWidth=1;shadow=0;" vertex="1" parent="WIyWlLk6GJQsqaUBKTNV-1">
          <mxGeometry x="540" y="653.33" width="240" height="106.67" as="geometry" />
        </mxCell>
        <mxCell id="aiVJMmzEyk2H416Wkd0U-82" value="8" style="text;html=1;strokeColor=none;fillColor=none;align=center;verticalAlign=middle;whiteSpace=wrap;rounded=0;fontSize=16;" vertex="1" parent="WIyWlLk6GJQsqaUBKTNV-1">
          <mxGeometry x="144.28" y="573.33" width="10" height="10" as="geometry" />
        </mxCell>
        <mxCell id="aiVJMmzEyk2H416Wkd0U-83" value="9" style="text;html=1;strokeColor=none;fillColor=none;align=center;verticalAlign=middle;whiteSpace=wrap;rounded=0;fontSize=16;" vertex="1" parent="WIyWlLk6GJQsqaUBKTNV-1">
          <mxGeometry x="375" y="575" width="10" height="10" as="geometry" />
        </mxCell>
        <mxCell id="aiVJMmzEyk2H416Wkd0U-84" value="10" style="text;html=1;strokeColor=none;fillColor=none;align=center;verticalAlign=middle;whiteSpace=wrap;rounded=0;fontSize=16;" vertex="1" parent="WIyWlLk6GJQsqaUBKTNV-1">
          <mxGeometry x="550" y="523.33" width="10" height="10" as="geometry" />
        </mxCell>
        <mxCell id="aiVJMmzEyk2H416Wkd0U-85" value="11" style="text;html=1;strokeColor=none;fillColor=none;align=center;verticalAlign=middle;whiteSpace=wrap;rounded=0;fontSize=16;" vertex="1" parent="WIyWlLk6GJQsqaUBKTNV-1">
          <mxGeometry x="550" y="663.33" width="10" height="10" as="geometry" />
        </mxCell>
        <mxCell id="aiVJMmzEyk2H416Wkd0U-87" style="edgeStyle=orthogonalEdgeStyle;rounded=0;orthogonalLoop=1;jettySize=auto;html=1;entryX=0;entryY=0.5;entryDx=0;entryDy=0;" edge="1" parent="WIyWlLk6GJQsqaUBKTNV-1" source="aiVJMmzEyk2H416Wkd0U-89" target="aiVJMmzEyk2H416Wkd0U-94">
          <mxGeometry relative="1" as="geometry" />
        </mxCell>
        <mxCell id="aiVJMmzEyk2H416Wkd0U-88" value="True" style="edgeLabel;html=1;align=center;verticalAlign=middle;resizable=0;points=[];" connectable="0" vertex="1" parent="aiVJMmzEyk2H416Wkd0U-87">
          <mxGeometry x="-0.0638" y="-2" relative="1" as="geometry">
            <mxPoint x="1" y="-2" as="offset" />
          </mxGeometry>
        </mxCell>
        <mxCell id="aiVJMmzEyk2H416Wkd0U-120" style="edgeStyle=orthogonalEdgeStyle;rounded=0;orthogonalLoop=1;jettySize=auto;html=1;" edge="1" parent="WIyWlLk6GJQsqaUBKTNV-1" source="aiVJMmzEyk2H416Wkd0U-89" target="aiVJMmzEyk2H416Wkd0U-104">
          <mxGeometry relative="1" as="geometry" />
        </mxCell>
        <mxCell id="aiVJMmzEyk2H416Wkd0U-124" value="False" style="edgeLabel;html=1;align=center;verticalAlign=middle;resizable=0;points=[];" connectable="0" vertex="1" parent="aiVJMmzEyk2H416Wkd0U-120">
          <mxGeometry x="-0.2046" y="3" relative="1" as="geometry">
            <mxPoint x="-3" y="6" as="offset" />
          </mxGeometry>
        </mxCell>
        <mxCell id="aiVJMmzEyk2H416Wkd0U-89" value="&lt;p align=&quot;center&quot; class=&quot;MsoNormal&quot;&gt;If sort by distance to carpark&lt;/p&gt;" style="rhombus;whiteSpace=wrap;html=1;shadow=0;fontFamily=Helvetica;fontSize=12;align=center;strokeWidth=1;spacing=6;spacingTop=-4;" vertex="1" parent="WIyWlLk6GJQsqaUBKTNV-1">
          <mxGeometry x="59.28" y="813.3299999999999" width="180" height="126.67" as="geometry" />
        </mxCell>
        <mxCell id="aiVJMmzEyk2H416Wkd0U-90" style="edgeStyle=orthogonalEdgeStyle;rounded=0;orthogonalLoop=1;jettySize=auto;html=1;exitX=1;exitY=0.5;exitDx=0;exitDy=0;entryX=0;entryY=0.5;entryDx=0;entryDy=0;" edge="1" parent="WIyWlLk6GJQsqaUBKTNV-1" source="aiVJMmzEyk2H416Wkd0U-94" target="aiVJMmzEyk2H416Wkd0U-95">
          <mxGeometry relative="1" as="geometry" />
        </mxCell>
        <mxCell id="aiVJMmzEyk2H416Wkd0U-91" value="True" style="edgeLabel;html=1;align=center;verticalAlign=middle;resizable=0;points=[];" connectable="0" vertex="1" parent="aiVJMmzEyk2H416Wkd0U-90">
          <mxGeometry x="0.0602" relative="1" as="geometry">
            <mxPoint as="offset" />
          </mxGeometry>
        </mxCell>
        <mxCell id="aiVJMmzEyk2H416Wkd0U-92" style="edgeStyle=orthogonalEdgeStyle;rounded=0;orthogonalLoop=1;jettySize=auto;html=1;exitX=1;exitY=0.5;exitDx=0;exitDy=0;entryX=0;entryY=0.5;entryDx=0;entryDy=0;" edge="1" parent="WIyWlLk6GJQsqaUBKTNV-1" source="aiVJMmzEyk2H416Wkd0U-94" target="aiVJMmzEyk2H416Wkd0U-96">
          <mxGeometry relative="1" as="geometry" />
        </mxCell>
        <mxCell id="aiVJMmzEyk2H416Wkd0U-93" value="False" style="edgeLabel;html=1;align=center;verticalAlign=middle;resizable=0;points=[];" connectable="0" vertex="1" parent="aiVJMmzEyk2H416Wkd0U-92">
          <mxGeometry x="0.0065" y="1" relative="1" as="geometry">
            <mxPoint as="offset" />
          </mxGeometry>
        </mxCell>
        <mxCell id="aiVJMmzEyk2H416Wkd0U-94" value="&lt;p align=&quot;center&quot; class=&quot;MsoNormal&quot;&gt;If in ascending order&lt;/p&gt;" style="rhombus;whiteSpace=wrap;html=1;shadow=0;fontFamily=Helvetica;fontSize=12;align=center;strokeWidth=1;spacing=6;spacingTop=-4;" vertex="1" parent="WIyWlLk6GJQsqaUBKTNV-1">
          <mxGeometry x="291.43" y="813.3299999999999" width="180" height="126.67" as="geometry" />
        </mxCell>
        <mxCell id="aiVJMmzEyk2H416Wkd0U-95" value="&lt;p align=&quot;center&quot; class=&quot;MsoNormal&quot;&gt;Display nearby carparks within 500m of searched location in a list, sorted by distance to carpark from user location in ascending order&lt;/p&gt;" style="rounded=1;whiteSpace=wrap;html=1;fontSize=12;glass=0;strokeWidth=1;shadow=0;" vertex="1" parent="WIyWlLk6GJQsqaUBKTNV-1">
          <mxGeometry x="538.13" y="780" width="241.87" height="110" as="geometry" />
        </mxCell>
        <mxCell id="aiVJMmzEyk2H416Wkd0U-96" value="&lt;p align=&quot;center&quot; class=&quot;MsoNormal&quot;&gt;Display nearby carparks within 500m of searched location in a list, sorted by distance to carpark from user location&amp;nbsp;in descending order&lt;br&gt;&lt;/p&gt;" style="rounded=1;whiteSpace=wrap;html=1;fontSize=12;glass=0;strokeWidth=1;shadow=0;" vertex="1" parent="WIyWlLk6GJQsqaUBKTNV-1">
          <mxGeometry x="541.43" y="913.33" width="238.57" height="106.67" as="geometry" />
        </mxCell>
        <mxCell id="aiVJMmzEyk2H416Wkd0U-97" value="12" style="text;html=1;strokeColor=none;fillColor=none;align=center;verticalAlign=middle;whiteSpace=wrap;rounded=0;fontSize=16;" vertex="1" parent="WIyWlLk6GJQsqaUBKTNV-1">
          <mxGeometry x="145.71" y="833.3299999999999" width="10" height="10" as="geometry" />
        </mxCell>
        <mxCell id="aiVJMmzEyk2H416Wkd0U-98" value="13" style="text;html=1;strokeColor=none;fillColor=none;align=center;verticalAlign=middle;whiteSpace=wrap;rounded=0;fontSize=16;" vertex="1" parent="WIyWlLk6GJQsqaUBKTNV-1">
          <mxGeometry x="371.43" y="833.3299999999999" width="10" height="10" as="geometry" />
        </mxCell>
        <mxCell id="aiVJMmzEyk2H416Wkd0U-99" value="14" style="text;html=1;strokeColor=none;fillColor=none;align=center;verticalAlign=middle;whiteSpace=wrap;rounded=0;fontSize=16;" vertex="1" parent="WIyWlLk6GJQsqaUBKTNV-1">
          <mxGeometry x="551.43" y="789.9999999999999" width="10" height="10" as="geometry" />
        </mxCell>
        <mxCell id="aiVJMmzEyk2H416Wkd0U-100" value="15" style="text;html=1;strokeColor=none;fillColor=none;align=center;verticalAlign=middle;whiteSpace=wrap;rounded=0;fontSize=16;" vertex="1" parent="WIyWlLk6GJQsqaUBKTNV-1">
          <mxGeometry x="551.43" y="923.3299999999999" width="10" height="10" as="geometry" />
        </mxCell>
        <mxCell id="aiVJMmzEyk2H416Wkd0U-102" style="edgeStyle=orthogonalEdgeStyle;rounded=0;orthogonalLoop=1;jettySize=auto;html=1;entryX=0;entryY=0.5;entryDx=0;entryDy=0;" edge="1" parent="WIyWlLk6GJQsqaUBKTNV-1" source="aiVJMmzEyk2H416Wkd0U-104" target="aiVJMmzEyk2H416Wkd0U-109">
          <mxGeometry relative="1" as="geometry" />
        </mxCell>
        <mxCell id="aiVJMmzEyk2H416Wkd0U-103" value="True" style="edgeLabel;html=1;align=center;verticalAlign=middle;resizable=0;points=[];" connectable="0" vertex="1" parent="aiVJMmzEyk2H416Wkd0U-102">
          <mxGeometry x="-0.0638" y="-2" relative="1" as="geometry">
            <mxPoint x="1" y="-2" as="offset" />
          </mxGeometry>
        </mxCell>
        <mxCell id="aiVJMmzEyk2H416Wkd0U-129" style="edgeStyle=orthogonalEdgeStyle;rounded=0;orthogonalLoop=1;jettySize=auto;html=1;exitX=0.5;exitY=1;exitDx=0;exitDy=0;entryX=0.5;entryY=0;entryDx=0;entryDy=0;" edge="1" parent="WIyWlLk6GJQsqaUBKTNV-1" source="aiVJMmzEyk2H416Wkd0U-104" target="aiVJMmzEyk2H416Wkd0U-127">
          <mxGeometry relative="1" as="geometry" />
        </mxCell>
        <mxCell id="kdf_6eulUb6qLDmI-KMp-0" value="False" style="edgeLabel;html=1;align=center;verticalAlign=middle;resizable=0;points=[];" connectable="0" vertex="1" parent="aiVJMmzEyk2H416Wkd0U-129">
          <mxGeometry x="-0.3095" y="2" relative="1" as="geometry">
            <mxPoint as="offset" />
          </mxGeometry>
        </mxCell>
        <mxCell id="aiVJMmzEyk2H416Wkd0U-104" value="&lt;p align=&quot;center&quot; class=&quot;MsoNormal&quot;&gt;If sort by price of carpark&lt;/p&gt;" style="rhombus;whiteSpace=wrap;html=1;shadow=0;fontFamily=Helvetica;fontSize=12;align=center;strokeWidth=1;spacing=6;spacingTop=-4;" vertex="1" parent="WIyWlLk6GJQsqaUBKTNV-1">
          <mxGeometry x="59.28" y="1083.33" width="180" height="126.67" as="geometry" />
        </mxCell>
        <mxCell id="aiVJMmzEyk2H416Wkd0U-105" style="edgeStyle=orthogonalEdgeStyle;rounded=0;orthogonalLoop=1;jettySize=auto;html=1;exitX=1;exitY=0.5;exitDx=0;exitDy=0;entryX=0;entryY=0.5;entryDx=0;entryDy=0;" edge="1" parent="WIyWlLk6GJQsqaUBKTNV-1" source="aiVJMmzEyk2H416Wkd0U-109" target="aiVJMmzEyk2H416Wkd0U-110">
          <mxGeometry relative="1" as="geometry" />
        </mxCell>
        <mxCell id="aiVJMmzEyk2H416Wkd0U-106" value="True" style="edgeLabel;html=1;align=center;verticalAlign=middle;resizable=0;points=[];" connectable="0" vertex="1" parent="aiVJMmzEyk2H416Wkd0U-105">
          <mxGeometry x="0.0602" relative="1" as="geometry">
            <mxPoint as="offset" />
          </mxGeometry>
        </mxCell>
        <mxCell id="aiVJMmzEyk2H416Wkd0U-107" style="edgeStyle=orthogonalEdgeStyle;rounded=0;orthogonalLoop=1;jettySize=auto;html=1;exitX=1;exitY=0.5;exitDx=0;exitDy=0;entryX=0;entryY=0.5;entryDx=0;entryDy=0;" edge="1" parent="WIyWlLk6GJQsqaUBKTNV-1" source="aiVJMmzEyk2H416Wkd0U-109" target="aiVJMmzEyk2H416Wkd0U-111">
          <mxGeometry relative="1" as="geometry" />
        </mxCell>
        <mxCell id="aiVJMmzEyk2H416Wkd0U-108" value="False" style="edgeLabel;html=1;align=center;verticalAlign=middle;resizable=0;points=[];" connectable="0" vertex="1" parent="aiVJMmzEyk2H416Wkd0U-107">
          <mxGeometry x="0.0065" y="1" relative="1" as="geometry">
            <mxPoint as="offset" />
          </mxGeometry>
        </mxCell>
        <mxCell id="aiVJMmzEyk2H416Wkd0U-109" value="&lt;p align=&quot;center&quot; class=&quot;MsoNormal&quot;&gt;If in ascending order&lt;/p&gt;" style="rhombus;whiteSpace=wrap;html=1;shadow=0;fontFamily=Helvetica;fontSize=12;align=center;strokeWidth=1;spacing=6;spacingTop=-4;" vertex="1" parent="WIyWlLk6GJQsqaUBKTNV-1">
          <mxGeometry x="291.43" y="1083.33" width="180" height="126.67" as="geometry" />
        </mxCell>
        <mxCell id="aiVJMmzEyk2H416Wkd0U-110" value="&lt;p align=&quot;center&quot; class=&quot;MsoNormal&quot;&gt;Display nearby carparks within 500m of searched location in a list, sorted by price of carpark in ascending order&lt;/p&gt;" style="rounded=1;whiteSpace=wrap;html=1;fontSize=12;glass=0;strokeWidth=1;shadow=0;" vertex="1" parent="WIyWlLk6GJQsqaUBKTNV-1">
          <mxGeometry x="541.43" y="1040" width="240" height="93.33" as="geometry" />
        </mxCell>
        <mxCell id="aiVJMmzEyk2H416Wkd0U-111" value="&lt;p align=&quot;center&quot; class=&quot;MsoNormal&quot;&gt;Display nearby carparks within 500m of searched location in a list, sorted by price of carpark in descending order&lt;br&gt;&lt;/p&gt;" style="rounded=1;whiteSpace=wrap;html=1;fontSize=12;glass=0;strokeWidth=1;shadow=0;" vertex="1" parent="WIyWlLk6GJQsqaUBKTNV-1">
          <mxGeometry x="541.43" y="1183.33" width="238.57" height="96.67" as="geometry" />
        </mxCell>
        <mxCell id="aiVJMmzEyk2H416Wkd0U-112" value="16" style="text;html=1;strokeColor=none;fillColor=none;align=center;verticalAlign=middle;whiteSpace=wrap;rounded=0;fontSize=16;" vertex="1" parent="WIyWlLk6GJQsqaUBKTNV-1">
          <mxGeometry x="145.71" y="1103.33" width="10" height="10" as="geometry" />
        </mxCell>
        <mxCell id="aiVJMmzEyk2H416Wkd0U-113" value="17" style="text;html=1;strokeColor=none;fillColor=none;align=center;verticalAlign=middle;whiteSpace=wrap;rounded=0;fontSize=16;" vertex="1" parent="WIyWlLk6GJQsqaUBKTNV-1">
          <mxGeometry x="371.43" y="1103.33" width="10" height="10" as="geometry" />
        </mxCell>
        <mxCell id="aiVJMmzEyk2H416Wkd0U-114" value="18" style="text;html=1;strokeColor=none;fillColor=none;align=center;verticalAlign=middle;whiteSpace=wrap;rounded=0;fontSize=16;" vertex="1" parent="WIyWlLk6GJQsqaUBKTNV-1">
          <mxGeometry x="551.43" y="1053.33" width="10" height="10" as="geometry" />
        </mxCell>
        <mxCell id="aiVJMmzEyk2H416Wkd0U-115" value="19" style="text;html=1;strokeColor=none;fillColor=none;align=center;verticalAlign=middle;whiteSpace=wrap;rounded=0;fontSize=16;" vertex="1" parent="WIyWlLk6GJQsqaUBKTNV-1">
          <mxGeometry x="551.43" y="1193.33" width="10" height="10" as="geometry" />
        </mxCell>
        <mxCell id="aiVJMmzEyk2H416Wkd0U-127" value="&lt;p align=&quot;center&quot; class=&quot;MsoNormal&quot;&gt;Display unsorted list of nearby carparks&lt;br&gt;&lt;/p&gt;" style="rounded=1;whiteSpace=wrap;html=1;fontSize=12;glass=0;strokeWidth=1;shadow=0;" vertex="1" parent="WIyWlLk6GJQsqaUBKTNV-1">
          <mxGeometry x="29.99999999999995" y="1280" width="238.57" height="96.67" as="geometry" />
        </mxCell>
        <mxCell id="aiVJMmzEyk2H416Wkd0U-128" value="&lt;span style=&quot;color: rgb(0, 0, 0); font-family: Helvetica; font-size: 16px; font-style: normal; font-variant-ligatures: normal; font-variant-caps: normal; font-weight: 400; letter-spacing: normal; orphans: 2; text-align: center; text-indent: 0px; text-transform: none; widows: 2; word-spacing: 0px; -webkit-text-stroke-width: 0px; background-color: rgb(251, 251, 251); text-decoration-thickness: initial; text-decoration-style: initial; text-decoration-color: initial; float: none; display: inline !important;&quot;&gt;20&lt;/span&gt;" style="text;whiteSpace=wrap;html=1;" vertex="1" parent="WIyWlLk6GJQsqaUBKTNV-1">
          <mxGeometry x="40.70999999999998" y="1280" width="50" height="40" as="geometry" />
        </mxCell>
      </root>
    </mxGraphModel>
  </diagram>
</mxfile>
